<svg width="40" height="40" viewBox="0 0 40 40" fill="none" xmlns="http://www.w3.org/2000/svg">
<path fill-rule="evenodd" clip-rule="evenodd" d="M16 2.5H32V20C32.0001 20.2212 31.9375 20.4384 31.8188 20.6295C31.7 20.8206 31.5293 20.9787 31.3241 21.0878C31.1188 21.1968 30.8864 21.2529 30.6505 21.2502C30.4146 21.2475 30.1837 21.1862 29.9813 21.0725L24 17.7075L18.0187 21.075C17.8161 21.1888 17.585 21.2501 17.3488 21.2527C17.1127 21.2553 16.8801 21.199 16.6748 21.0897C16.4695 20.9803 16.2988 20.8218 16.1802 20.6304C16.0617 20.4389 15.9995 20.2214 16 20V2.5Z" fill="#00A1E4"/>
<path d="M7.99996 0H34.6666C36.0811 0 37.4377 0.526784 38.4379 1.46447C39.4381 2.40215 40 3.67392 40 5V35C40 36.3261 39.4381 37.5979 38.4379 38.5355C37.4377 39.4732 36.0811 40 34.6666 40H7.99996C6.58547 40 5.22892 39.4732 4.22872 38.5355C3.22853 37.5979 2.66663 36.3261 2.66663 35V32.5H5.33329V35C5.33329 35.663 5.61424 36.2989 6.11434 36.7678C6.61444 37.2366 7.29272 37.5 7.99996 37.5H34.6666C35.3739 37.5 36.0521 37.2366 36.5522 36.7678C37.0523 36.2989 37.3333 35.663 37.3333 35V5C37.3333 4.33696 37.0523 3.70107 36.5522 3.23223C36.0521 2.76339 35.3739 2.5 34.6666 2.5H7.99996C7.29272 2.5 6.61444 2.76339 6.11434 3.23223C5.61424 3.70107 5.33329 4.33696 5.33329 5V7.5H2.66663V5C2.66663 3.67392 3.22853 2.40215 4.22872 1.46447C5.22892 0.526784 6.58547 0 7.99996 0V0Z" fill="#00A1E4"/>
<path d="M2.66667 12.5V11.25C2.66667 10.9185 2.80714 10.6005 3.05719 10.3661C3.30724 10.1317 3.64638 10 4 10C4.35362 10 4.69276 10.1317 4.94281 10.3661C5.19286 10.6005 5.33333 10.9185 5.33333 11.25V12.5H6.66667C7.02029 12.5 7.35943 12.6317 7.60948 12.8661C7.85952 13.1005 8 13.4185 8 13.75C8 14.0815 7.85952 14.3995 7.60948 14.6339C7.35943 14.8683 7.02029 15 6.66667 15H1.33333C0.979711 15 0.640573 14.8683 0.390524 14.6339C0.140476 14.3995 0 14.0815 0 13.75C0 13.4185 0.140476 13.1005 0.390524 12.8661C0.640573 12.6317 0.979711 12.5 1.33333 12.5H2.66667ZM2.66667 20V18.75C2.66667 18.4185 2.80714 18.1005 3.05719 17.8661C3.30724 17.6317 3.64638 17.5 4 17.5C4.35362 17.5 4.69276 17.6317 4.94281 17.8661C5.19286 18.1005 5.33333 18.4185 5.33333 18.75V20H6.66667C7.02029 20 7.35943 20.1317 7.60948 20.3661C7.85952 20.6005 8 20.9185 8 21.25C8 21.5815 7.85952 21.8995 7.60948 22.1339C7.35943 22.3683 7.02029 22.5 6.66667 22.5H1.33333C0.979711 22.5 0.640573 22.3683 0.390524 22.1339C0.140476 21.8995 0 21.5815 0 21.25C0 20.9185 0.140476 20.6005 0.390524 20.3661C0.640573 20.1317 0.979711 20 1.33333 20H2.66667ZM2.66667 27.5V26.25C2.66667 25.9185 2.80714 25.6005 3.05719 25.3661C3.30724 25.1317 3.64638 25 4 25C4.35362 25 4.69276 25.1317 4.94281 25.3661C5.19286 25.6005 5.33333 25.9185 5.33333 26.25V27.5H6.66667C7.02029 27.5 7.35943 27.6317 7.60948 27.8661C7.85952 28.1005 8 28.4185 8 28.75C8 29.0815 7.85952 29.3995 7.60948 29.6339C7.35943 29.8683 7.02029 30 6.66667 30H1.33333C0.979711 30 0.640573 29.8683 0.390524 29.6339C0.140476 29.3995 0 29.0815 0 28.75C0 28.4185 0.140476 28.1005 0.390524 27.8661C0.640573 27.6317 0.979711 27.5 1.33333 27.5H2.66667Z" fill="#00A1E4"/>
</svg>
