<svg width="28" height="30" viewBox="0 0 28 30" fill="none" xmlns="http://www.w3.org/2000/svg">
<path d="M4.00002 29.1667C3.08335 29.1667 2.29891 28.8406 1.64669 28.1883C0.993353 27.535 0.666687 26.75 0.666687 25.8333V10.8333C0.666687 10.3056 0.78502 9.80556 1.02169 9.33333C1.25724 8.86111 1.58335 8.47222 2.00002 8.16667L12 0.666667C12.3056 0.444445 12.625 0.277778 12.9584 0.166667C13.2917 0.0555554 13.6389 0 14 0C14.3611 0 14.7084 0.0555554 15.0417 0.166667C15.375 0.277778 15.6945 0.444445 16 0.666667L26 8.16667C26.4167 8.47222 26.7434 8.86111 26.98 9.33333C27.2156 9.80556 27.3334 10.3056 27.3334 10.8333V25.8333C27.3334 26.75 27.0072 27.535 26.355 28.1883C25.7017 28.8406 24.9167 29.1667 24 29.1667H17.3334V17.5H10.6667V29.1667H4.00002Z" fill="#00A1E4"/>
</svg>
