<svg width="34" height="33" viewBox="0 0 34 33" fill="none" xmlns="http://www.w3.org/2000/svg">
<path d="M33.5 29.4222L33.1222 29.0889C32.0505 28.134 31.1124 27.0389 30.3334 25.8333C29.4825 24.1695 28.9725 22.3525 28.8334 20.4889V15C28.8288 14.3333 28.7694 13.6681 28.6556 13.0111C26.7735 12.6243 25.0829 11.5989 23.87 10.1086C22.6572 8.61837 21.9966 6.75476 22 4.83332V4.13332C20.8399 3.56242 19.5935 3.187 18.3111 3.02221V1.62221C18.3111 1.22881 18.1549 0.851515 17.8767 0.573336C17.5985 0.295157 17.2212 0.138878 16.8278 0.138878C16.4344 0.138878 16.0571 0.295157 15.7789 0.573336C15.5008 0.851515 15.3445 1.22881 15.3445 1.62221V3.07777C12.473 3.48283 9.84511 4.91304 7.94583 7.10436C6.04655 9.29568 5.00417 12.1001 5.01114 15V20.4889C4.87198 22.3525 4.362 24.1695 3.51114 25.8333C2.74545 27.0359 1.82247 28.1308 0.766694 29.0889L0.388916 29.4222V32.5555H33.5V29.4222Z" fill="#00A1E4"/>
</svg>
