<svg width="35" height="40" viewBox="0 0 35 40" fill="none" xmlns="http://www.w3.org/2000/svg">
<path d="M28.75 0H6.25C4.75816 0 3.32742 0.526784 2.27252 1.46447C1.21763 2.40215 0.625 3.67392 0.625 5V35C0.625 36.3261 1.21763 37.5979 2.27252 38.5355C3.32742 39.4732 4.75816 40 6.25 40H28.75C30.2418 40 31.6726 39.4732 32.7275 38.5355C33.7824 37.5979 34.375 36.3261 34.375 35V5C34.375 3.67392 33.7824 2.40215 32.7275 1.46447C31.6726 0.526784 30.2418 0 28.75 0V0ZM25.9375 17.5C25.9375 19.4891 25.0486 21.3968 23.4662 22.8033C21.8839 24.2098 19.7378 25 17.5 25C15.2622 25 13.1161 24.2098 11.5338 22.8033C9.95145 21.3968 9.0625 19.4891 9.0625 17.5C9.0625 15.5109 9.95145 13.6032 11.5338 12.1967C13.1161 10.7902 15.2622 10 17.5 10C19.7378 10 21.8839 10.7902 23.4662 12.1967C25.0486 13.6032 25.9375 15.5109 25.9375 17.5ZM17.5 27.5C24.8772 27.5 29.1606 29.565 31.5625 31.8875V35C31.5625 35.663 31.2662 36.2989 30.7387 36.7678C30.2113 37.2366 29.4959 37.5 28.75 37.5H6.25C5.50408 37.5 4.78871 37.2366 4.26126 36.7678C3.73382 36.2989 3.4375 35.663 3.4375 35V31.8875C5.83938 29.5625 10.1228 27.5 17.5 27.5Z" fill="#00A1E4"/>
</svg>
