<svg width="75" height="93" viewBox="0 0 75 93" fill="none" xmlns="http://www.w3.org/2000/svg">
<path d="M21.648 19.5679L20.6804 14.0629C20.6804 14.0629 34.3486 14.1922 36.231 15.9638L38.2948 17.9179L39.958 15.7889C40.4514 15.4589 41.0223 15.2649 41.6136 15.2263C44.5619 14.7625 52.5451 13.5687 54.7753 14.0629L54.1025 18.7695" stroke="#00A1E4" stroke-width="1.5" stroke-miterlimit="10" stroke-linecap="round"/>
<path d="M47.8278 34.6458C51.9236 34.6458 55.244 31.3062 55.244 27.1867C55.244 23.0671 51.9236 19.7276 47.8278 19.7276C43.7319 19.7276 40.4116 23.0671 40.4116 27.1867C40.4116 31.3062 43.7319 34.6458 47.8278 34.6458Z" stroke="#00A1E4" stroke-width="2" stroke-miterlimit="10"/>
<path d="M28.5048 34.6458C32.6006 34.6458 35.921 31.3062 35.921 27.1867C35.921 23.0671 32.6006 19.7276 28.5048 19.7276C24.4089 19.7276 21.0886 23.0671 21.0886 27.1867C21.0886 31.3062 24.4089 34.6458 28.5048 34.6458Z" stroke="#00A1E4" stroke-width="2" stroke-miterlimit="10"/>
<path d="M44.7207 24.571C45.4314 23.8096 46.3956 23.3375 47.4298 23.2444C48.464 23.1513 49.4962 23.4438 50.3301 24.0662C51.1639 24.6886 51.7412 25.5975 51.9523 26.6201C52.1633 27.6427 51.9933 28.7076 51.4747 29.6123C50.956 30.5171 50.1248 31.1986 49.1392 31.5272C48.1536 31.8558 47.0823 31.8086 46.129 31.3947C45.1756 30.9807 44.4069 30.2287 43.9688 29.2818C43.5307 28.3349 43.4539 27.2592 43.753 26.259V26.259" stroke="#00A1E4" stroke-width="1.2" stroke-miterlimit="10" stroke-linecap="round"/>
<path d="M25.0651 24.571C25.7761 23.8015 26.7438 23.3217 27.7837 23.2232C28.8237 23.1247 29.8633 23.4143 30.7048 24.0368C31.5462 24.6593 32.1307 25.5713 32.3469 26.5991C32.5631 27.627 32.3959 28.6989 31.8772 29.6108C31.3585 30.5228 30.5245 31.211 29.534 31.5445C28.5435 31.8781 27.4656 31.8336 26.5056 31.4196C25.5455 31.0055 24.7704 30.2509 24.3277 29.2993C23.8851 28.3477 23.8058 27.2656 24.105 26.259V26.259" stroke="#00A1E4" stroke-width="1.2" stroke-miterlimit="10" stroke-linecap="round"/>
<path d="M21.4364 36.1665V40.4169C21.4322 43.0708 22.0759 45.6852 23.311 48.0304C24.546 50.3757 26.3347 52.3801 28.5199 53.8676L28.7619 54.0273C31.2759 55.6521 34.2027 56.5128 37.1911 56.506H38.1436C40.2769 56.5142 42.3848 56.0413 44.3125 55.1222C47.4044 53.6015 50.572 51.8374 52.84 46.7583L53.3162 45.5341C53.8605 44.0134 53.8152 44.1959 53.8605 44.0134C54.1403 42.8196 54.2159 37.8925 54.1856 31.0873" stroke="#00A1E4" stroke-width="2" stroke-miterlimit="10" stroke-linecap="round"/>
<path d="M35.1726 36.9192L37.9924 41.7247L40.8198 36.9192L37.9924 33.2923L35.1726 36.9192Z" stroke="#00A1E4" stroke-width="2" stroke-miterlimit="10"/>
<path d="M39.9655 38.3791C39.9655 38.3791 44.766 39.2839 46.8299 40.8731L48.115 41.8616C48.6704 42.2742 49.1776 42.7486 49.627 43.2758C50.3308 44.0841 50.968 44.9487 51.5321 45.861C51.8106 46.3399 52.0314 46.8504 52.1898 47.3817" stroke="#00A1E4" stroke-width="2" stroke-miterlimit="10" stroke-linecap="round"/>
<path d="M23.6362 48.6059C23.6362 48.6059 22.6005 47.0852 26.32 43.5191C26.8633 42.9934 27.4417 42.5057 28.0512 42.0593L29.5632 40.9796C30.4297 40.3255 31.3809 39.7934 32.3905 39.398C33.4187 38.995 34.7795 38.4932 35.921 38.1586" stroke="#00A1E4" stroke-width="2" stroke-miterlimit="10" stroke-linecap="round"/>
<path d="M29.2608 14.8004V7.08283C29.2608 7.08283 36.1856 5.44046 37.7278 5.44046C40.3631 5.70921 42.954 6.31214 45.4389 7.2349V14.9525" stroke="#00A1E4" stroke-width="1.5" stroke-miterlimit="10"/>
<path d="M45.4464 7.4098L49.4683 6.12479L37.7203 1.60828L25.4128 5.72181L29.2608 7.34897" stroke="#00A1E4" stroke-width="1.5" stroke-miterlimit="10"/>
<path d="M26.5997 6.27686C26.5997 6.27686 24.7324 7.08283 24.7249 7.33375V9.05216" stroke="#00A1E4" stroke-width="1.5" stroke-miterlimit="10"/>
<path d="M24.7098 13.2645C25.7661 13.2645 26.6224 12.4033 26.6224 11.3408C26.6224 10.2784 25.7661 9.41714 24.7098 9.41714C23.6534 9.41714 22.7971 10.2784 22.7971 11.3408C22.7971 12.4033 23.6534 13.2645 24.7098 13.2645Z" stroke="#00A1E4" stroke-width="1.5" stroke-miterlimit="10"/>
<path d="M52.7644 53.822C52.8106 53.8309 52.8545 53.8492 52.8935 53.8757C52.9324 53.9022 52.9656 53.9364 52.9911 53.9763C53.0165 54.0161 53.0337 54.0607 53.0415 54.1073C53.0493 54.154 53.0476 54.2018 53.0365 54.2478L52.2201 57.9811C52.1984 58.0745 52.1411 58.1556 52.0604 58.2069C51.9798 58.2581 51.8823 58.2753 51.7891 58.2548V58.2548C51.6973 58.2313 51.6178 58.1733 51.5672 58.0927C51.5166 58.0121 51.4986 57.915 51.517 57.8214L52.3335 54.0957C52.3433 54.0489 52.3623 54.0046 52.3894 53.9654C52.4165 53.9261 52.4512 53.8927 52.4914 53.8672C52.5316 53.8417 52.5764 53.8246 52.6233 53.8168C52.6702 53.809 52.7182 53.8108 52.7644 53.822V53.822Z" stroke="#00A1E4" stroke-width="1.5" stroke-miterlimit="10"/>
<path d="M49.7329 53.822C49.7791 53.8309 49.823 53.8492 49.8619 53.8757C49.9009 53.9023 49.9341 53.9365 49.9596 53.9763C49.985 54.0161 50.0022 54.0607 50.01 54.1073C50.0178 54.154 50.0161 54.2018 50.005 54.2478L49.1886 57.9811C49.1797 58.0276 49.1615 58.0718 49.1351 58.1109C49.1087 58.1501 49.0747 58.1835 49.0351 58.2091C48.9956 58.2347 48.9512 58.252 48.9048 58.2598C48.8584 58.2677 48.8109 58.266 48.7652 58.2548C48.719 58.2459 48.6751 58.2276 48.6361 58.2011C48.5972 58.1745 48.5639 58.1403 48.5385 58.1005C48.5131 58.0607 48.4959 58.0161 48.4881 57.9695C48.4803 57.9228 48.482 57.875 48.4931 57.829L49.3095 54.0957C49.3184 54.0492 49.3366 54.0051 49.363 53.9659C49.3894 53.9267 49.4234 53.8933 49.4629 53.8677C49.5025 53.8421 49.5468 53.8248 49.5932 53.817C49.6396 53.8091 49.6871 53.8108 49.7329 53.822Z" stroke="#00A1E4" stroke-width="1.5" stroke-miterlimit="10"/>
<path d="M46.6787 53.8296C46.7249 53.8385 46.7688 53.8568 46.8078 53.8833C46.8467 53.9099 46.8799 53.9441 46.9054 53.9839C46.9308 54.0237 46.948 54.0683 46.9558 54.1149C46.9636 54.1616 46.9619 54.2094 46.9508 54.2554L46.1344 58.0267C46.1127 58.1202 46.0554 58.2013 45.9747 58.2525C45.8941 58.3037 45.7966 58.321 45.7035 58.3005V58.3005C45.6116 58.277 45.5321 58.2189 45.4815 58.1383C45.4309 58.0577 45.4129 57.9606 45.4313 57.8671L46.2553 54.1413C46.2595 54.0915 46.2743 54.0431 46.2986 53.9995C46.3229 53.9559 46.3563 53.918 46.3964 53.8885C46.4365 53.8589 46.4825 53.8384 46.5312 53.8282C46.5799 53.8181 46.6302 53.8185 46.6787 53.8296V53.8296Z" stroke="#00A1E4" stroke-width="1.5" stroke-miterlimit="10"/>
<path d="M24.4074 58.4145C24.3203 58.4327 24.2295 58.4158 24.1546 58.3675C24.0797 58.3192 24.0266 58.2432 24.0067 58.156L23.2507 54.6432C23.2277 54.5554 23.2402 54.4621 23.2856 54.3837C23.331 54.3053 23.4054 54.2482 23.4926 54.225V54.225C23.5798 54.2068 23.6705 54.2237 23.7454 54.272C23.8203 54.3203 23.8734 54.3962 23.8933 54.4835L24.6493 57.9963C24.6618 58.0398 24.6654 58.0853 24.6599 58.1302C24.6544 58.1751 24.6399 58.2184 24.6173 58.2575C24.5946 58.2966 24.5644 58.3306 24.5283 58.3576C24.4922 58.3846 24.4511 58.404 24.4074 58.4145Z" stroke="#00A1E4" stroke-width="1.5" stroke-miterlimit="10"/>
<path d="M26.7392 54.5061C26.6988 54.3216 26.5189 54.2046 26.3374 54.2448C26.156 54.2851 26.0417 54.4673 26.0821 54.6518L26.8502 58.1566C26.8906 58.3411 27.0705 58.4581 27.2519 58.4179C27.4334 58.3776 27.5477 58.1954 27.5072 58.0109L26.7392 54.5061Z" stroke="#00A1E4" stroke-width="1.5" stroke-miterlimit="10"/>
<path d="M29.6126 54.5077C29.5722 54.3232 29.3923 54.2062 29.2109 54.2464C29.0294 54.2866 28.9151 54.4688 28.9556 54.6534L29.7236 58.1581C29.764 58.3427 29.9439 58.4596 30.1254 58.4194C30.3068 58.3792 30.4211 58.197 30.3807 58.0125L29.6126 54.5077Z" stroke="#00A1E4" stroke-width="1.5" stroke-miterlimit="10"/>
<path d="M12.024 82H2.16V64.864H12.024V67.84H5.784V71.608H11.592V74.584H5.784V79H12.024V82ZM24.4457 78.112C24.4457 78.992 24.2377 79.744 23.8217 80.368C23.4057 80.976 22.7817 81.44 21.9497 81.76C21.1177 82.08 20.0857 82.24 18.8537 82.24C17.9417 82.24 17.1577 82.176 16.5017 82.048C15.8457 81.936 15.1897 81.744 14.5337 81.472V78.52C15.2377 78.84 15.9977 79.104 16.8137 79.312C17.6297 79.52 18.3497 79.624 18.9737 79.624C19.6777 79.624 20.1737 79.52 20.4617 79.312C20.7657 79.104 20.9177 78.832 20.9177 78.496C20.9177 78.272 20.8537 78.072 20.7257 77.896C20.6137 77.72 20.3577 77.52 19.9577 77.296C19.5577 77.072 18.9337 76.784 18.0857 76.432C17.2697 76.08 16.5977 75.736 16.0697 75.4C15.5417 75.048 15.1497 74.632 14.8937 74.152C14.6377 73.656 14.5097 73.04 14.5097 72.304C14.5097 71.088 14.9817 70.176 15.9257 69.568C16.8697 68.96 18.1257 68.656 19.6937 68.656C20.5097 68.656 21.2857 68.736 22.0217 68.896C22.7577 69.056 23.5177 69.32 24.3017 69.688L23.2217 72.256C22.5817 71.984 21.9737 71.76 21.3977 71.584C20.8217 71.392 20.2377 71.296 19.6457 71.296C19.1177 71.296 18.7177 71.368 18.4457 71.512C18.1897 71.656 18.0617 71.872 18.0617 72.16C18.0617 72.368 18.1257 72.56 18.2537 72.736C18.3977 72.896 18.6617 73.072 19.0457 73.264C19.4457 73.456 20.0297 73.712 20.7977 74.032C21.5497 74.336 22.1977 74.656 22.7417 74.992C23.2857 75.312 23.7017 75.72 23.9897 76.216C24.2937 76.696 24.4457 77.328 24.4457 78.112ZM32.5594 82.24C31.2634 82.24 30.1594 82.008 29.2474 81.544C28.3354 81.064 27.6394 80.328 27.1594 79.336C26.6794 78.344 26.4394 77.072 26.4394 75.52C26.4394 73.92 26.7114 72.616 27.2554 71.608C27.7994 70.6 28.5514 69.856 29.5114 69.376C30.4874 68.896 31.6074 68.656 32.8714 68.656C33.7674 68.656 34.5434 68.744 35.1994 68.92C35.8714 69.096 36.4554 69.304 36.9514 69.544L35.8954 72.304C35.3354 72.08 34.8074 71.896 34.3114 71.752C33.8314 71.608 33.3514 71.536 32.8714 71.536C32.2474 71.536 31.7274 71.688 31.3114 71.992C30.8954 72.28 30.5834 72.72 30.3754 73.312C30.1834 73.888 30.0874 74.616 30.0874 75.496C30.0874 76.36 30.1914 77.08 30.3994 77.656C30.6234 78.216 30.9434 78.64 31.3594 78.928C31.7754 79.2 32.2794 79.336 32.8714 79.336C33.6234 79.336 34.2874 79.24 34.8634 79.048C35.4394 78.84 35.9994 78.56 36.5434 78.208V81.256C35.9994 81.608 35.4234 81.856 34.8154 82C34.2234 82.16 33.4714 82.24 32.5594 82.24ZM51.4635 75.424C51.4635 76.512 51.3115 77.48 51.0075 78.328C50.7195 79.176 50.2955 79.896 49.7355 80.488C49.1915 81.064 48.5275 81.504 47.7435 81.808C46.9595 82.096 46.0715 82.24 45.0795 82.24C44.1675 82.24 43.3195 82.096 42.5355 81.808C41.7675 81.504 41.1035 81.064 40.5435 80.488C39.9835 79.896 39.5435 79.176 39.2235 78.328C38.9195 77.48 38.7675 76.512 38.7675 75.424C38.7675 73.968 39.0235 72.744 39.5355 71.752C40.0475 70.744 40.7835 69.976 41.7435 69.448C42.7035 68.92 43.8395 68.656 45.1515 68.656C46.3835 68.656 47.4715 68.92 48.4155 69.448C49.3595 69.976 50.1035 70.744 50.6475 71.752C51.1915 72.744 51.4635 73.968 51.4635 75.424ZM42.4155 75.424C42.4155 76.288 42.5035 77.016 42.6795 77.608C42.8715 78.184 43.1675 78.624 43.5675 78.928C43.9675 79.216 44.4875 79.36 45.1275 79.36C45.7675 79.36 46.2795 79.216 46.6635 78.928C47.0635 78.624 47.3515 78.184 47.5275 77.608C47.7195 77.016 47.8155 76.288 47.8155 75.424C47.8155 74.56 47.7195 73.84 47.5275 73.264C47.3515 72.688 47.0635 72.256 46.6635 71.968C46.2635 71.68 45.7435 71.536 45.1035 71.536C44.1595 71.536 43.4715 71.864 43.0395 72.52C42.6235 73.16 42.4155 74.128 42.4155 75.424ZM66.3229 75.424C66.3229 76.512 66.1709 77.48 65.8669 78.328C65.5789 79.176 65.1549 79.896 64.5949 80.488C64.0509 81.064 63.3869 81.504 62.6029 81.808C61.8189 82.096 60.9309 82.24 59.9389 82.24C59.0269 82.24 58.1789 82.096 57.3949 81.808C56.6269 81.504 55.9629 81.064 55.4029 80.488C54.8429 79.896 54.4029 79.176 54.0829 78.328C53.7789 77.48 53.6269 76.512 53.6269 75.424C53.6269 73.968 53.8829 72.744 54.3949 71.752C54.9069 70.744 55.6429 69.976 56.6029 69.448C57.5629 68.92 58.6989 68.656 60.0109 68.656C61.2429 68.656 62.3309 68.92 63.2749 69.448C64.2189 69.976 64.9629 70.744 65.5069 71.752C66.0509 72.744 66.3229 73.968 66.3229 75.424ZM57.2749 75.424C57.2749 76.288 57.3629 77.016 57.5389 77.608C57.7309 78.184 58.0269 78.624 58.4269 78.928C58.8269 79.216 59.3469 79.36 59.9869 79.36C60.6269 79.36 61.1389 79.216 61.5229 78.928C61.9229 78.624 62.2109 78.184 62.3869 77.608C62.5789 77.016 62.6749 76.288 62.6749 75.424C62.6749 74.56 62.5789 73.84 62.3869 73.264C62.2109 72.688 61.9229 72.256 61.5229 71.968C61.1229 71.68 60.6029 71.536 59.9629 71.536C59.0189 71.536 58.3309 71.864 57.8989 72.52C57.4829 73.16 57.2749 74.128 57.2749 75.424ZM72.8543 82H69.2783V63.76H72.8543V82Z" fill="#393E41"/>
</svg>
